<?xml version="1.0" encoding="utf-8"?>
<!-- Provided brand logo adapted without modification -->
<svg version="1.1" id="brand_logo" xmlns="http://www.w3.org/2000/svg" x="0px" y="0px"
	 viewBox="0 0 841.89 595.28" style="enable-background:new 0 0 841.89 595.28;" xml:space="preserve">
<style type="text/css">
	.st0{fill:url(#brandGradient);}
</style>
<linearGradient id="brandGradient" gradientUnits="userSpaceOnUse" x1="173.446" y1="184.8384" x2="717.4282" y2="433.9917">
	<stop  offset="0" style="stop-color:#DF78AE"/>
	<stop  offset="0.5" style="stop-color:#B66FA6"/>
	<stop  offset="1" style="stop-color:#0068B3"/>
</linearGradient>
<path class="st0" d="M720.09,382.63c-0.65,34.38-14.54,62.45-40.29,84.85c-21.77,18.94-47.44,28.9-75.86,32.36
	c-37.02,4.51-71.89-1.94-104.62-20.01c-20.34-11.23-40.23-10.22-58.85,3.84c-4.62,3.49-8.56,8.25-11.76,13.11
	c-2.34,3.55-4.61,5.11-8.68,4.63c-2.03-0.24-4.12-0.04-6.83-0.04c1.06-2.3,1.77-3.92,2.55-5.5c17.5-35.31,35.11-70.58,52.4-105.99
	c2.25-4.6,4.74-6.88,9.87-5.98c1.62,0.28,3.32,0.04,5.7,0.04c-4.29,10.15-6.55,19.91-4.79,30.31c1.5,8.85,4.54,17.03,10.31,23.96
	c16.71,20.08,36.34,36.54,61.55,44.55c40.43,12.85,89.9-1.54,111.38-42.65c4.48-8.58,6.84-17.66,6.93-27.5
	c0.14-14.77-1.41-29.07-7.99-42.52c-8.69-17.74-23.37-29.16-40.31-38.16c-15.83-8.41-33.15-12.51-50.26-17.23
	c-27.04-7.46-53.19-17.14-76.92-32.39c-21.77-13.98-39.32-31.83-47.08-57.16c-11.23-36.65-3.59-82.52,33.47-108.11
	c16.94-11.7,35.95-18.15,56.16-21.14c34.29-5.08,67.49-1.18,99.37,12.74c5.13,2.24,10.06,5.12,15.38,6.7
	c12.87,3.82,24.65-3.71,27.23-16.89c0.26-1.34,0.5-2.68,0.8-4.26c2.96,0,5.95,0,9.28,0c0,38.13,0,76.17,0,114.51
	c-3.09,0-6.04,0-8.36,0c-1.95-9.05-3.2-18.07-5.88-26.65c-5.49-17.57-17.69-30.61-31.11-42.46c-15.67-13.84-33.62-23.81-54.54-26.46
	c-28.68-3.63-56.55-1.08-79.16,19.43c-22.65,20.55-35.24,65.1,4.65,93.1c19.25,13.51,40.89,21.06,63.29,26.98
	c28.73,7.59,56.73,17.09,82.08,32.96c19.66,12.31,36.76,27.38,48.48,47.83C716.42,348.68,720.42,365.07,720.09,382.63z
	 M208.56,134.28C266.21,250.96,323.31,366.54,380.8,482.9c32.75-66.39,65.07-131.91,97.41-197.46c-4.73-3.74-9.17-7.26-13.92-11.02
	c-20.2,40.89-40.21,81.41-60.42,122.34c-0.96-1.89-1.72-3.35-2.45-4.83c-48.36-97.91-96.72-195.82-145.01-293.76
	c-1.51-3.07-3.14-4.35-6.8-4.33c-37.54,0.18-75.07,0.11-112.61,0.11c-1.77,0-3.53,0-5.36,0c0,3.43,0,6.24,0,9.49
	c2.22,0,4.16-0.04,6.1,0.01c17.34,0.4,31.48,7.13,41.69,21.36c6.92,9.64,9.03,20.57,9.02,32.29c-0.11,89.02-0.06,178.03-0.06,267.05
	c0,2.13-0.05,4.25-0.14,6.38c-0.98,22.78-17.05,42.02-39.39,46.24c-7.08,1.34-14.49,0.94-21.75,1.33c-1.74,0.09-3.48,0.17-5.32,0.25
	c0,3.34,0,6.05,0,9.28c51.19,0,101.99,0,152.71,0c0-3.27,0-6.21,0-9.53c-5.33,0-10.33,0.06-15.32-0.01
	c-29.89-0.45-50.95-21.62-50.96-51.44c-0.05-95.85-0.02-191.7-0.01-287.56C208.2,137.84,208.38,136.62,208.56,134.28z"/>
</svg>